<?xml version="1.0" encoding="UTF-8" standalone="no" ?>
<!DOCTYPE svg PUBLIC "-//W3C//DTD SVG 1.1//EN" "http://www.w3.org/Graphics/SVG/1.1/DTD/svg11.dtd">
<svg xmlns="http://www.w3.org/2000/svg" xmlns:xlink="http://www.w3.org/1999/xlink" version="1.1" width="1080" height="1080" viewBox="0 0 1080 1080" xml:space="preserve">
<desc>Created with Fabric.js 5.2.4</desc>
<defs>
</defs>
<rect x="0" y="0" width="100%" height="100%" fill="transparent"></rect>
<g transform="matrix(1 0 0 1 540 540)" id="b7288389-a352-40a1-b72b-b058c8230a25"  >
<rect style="stroke: none; stroke-width: 1; stroke-dasharray: none; stroke-linecap: butt; stroke-dashoffset: 0; stroke-linejoin: miter; stroke-miterlimit: 4; fill: rgb(255,255,255); fill-rule: nonzero; opacity: 1; visibility: hidden;" vector-effect="non-scaling-stroke"  x="-540" y="-540" rx="0" ry="0" width="1080" height="1080" />
</g>
<g transform="matrix(1 0 0 1 540 540)" id="5f6fd61a-200f-4f04-9c87-dbdbbd175a83"  >
</g>
<g transform="matrix(0 0 0 0 0 0)"  >
<g style=""   >
</g>
</g>
<g transform="matrix(0 13.27 -14.4 0 544.4 542.89)" id="aad1ae0e-1e1c-4b44-9343-3d0e9d515e1b"  >
<polygon style="stroke: rgb(0,0,0); stroke-width: 0; stroke-dasharray: none; stroke-linecap: butt; stroke-dashoffset: 0; stroke-linejoin: miter; stroke-miterlimit: 4; fill: rgb(92,192,206); fill-rule: nonzero; opacity: 1;" vector-effect="non-scaling-stroke"  points="-18.54,32.11 -37.08,0 -18.54,-32.11 18.54,-32.11 37.08,0 18.54,32.11 " />
</g>
<g transform="matrix(1 0 0 1 540 540)"  >
<g style="" vector-effect="non-scaling-stroke"   >
		<g transform="matrix(1 0 0 1 -490 -490)"  >
<rect style="stroke: none; stroke-width: 1; stroke-dasharray: none; stroke-linecap: butt; stroke-dashoffset: 0; stroke-linejoin: miter; stroke-miterlimit: 4; fill: rgb(255,255,255); fill-opacity: 0; fill-rule: nonzero; opacity: 1;" vector-effect="non-scaling-stroke"  x="-50" y="-50" rx="0" ry="0" width="100" height="100" />
</g>
		<g transform="matrix(1 0 0 1 0 0)"  >
<rect style="stroke: none; stroke-width: 1; stroke-dasharray: none; stroke-linecap: butt; stroke-dashoffset: 0; stroke-linejoin: miter; stroke-miterlimit: 4; fill: rgb(255,255,255); fill-rule: nonzero; opacity: 1; visibility: hidden;" vector-effect="non-scaling-stroke"  x="-540" y="-540" rx="0" ry="0" width="1080" height="1080" />
</g>
		<g transform="matrix(3.96 0 0 3.57 -1.73 1.56)"  >
<path style="stroke: rgb(0,0,0); stroke-width: 0; stroke-dasharray: none; stroke-linecap: butt; stroke-dashoffset: 0; stroke-linejoin: miter; stroke-miterlimit: 4; fill: rgb(255,255,255); fill-rule: nonzero; opacity: 1;" vector-effect="non-scaling-stroke"  transform=" translate(-657.38, -832.93)" d="M 646.23145 973.5653 C 635.74056 967.36866 611.03084 953.14187 577.5 933.99267 C 575.85 933.0503699999999 572.1177 930.86653 569.20599 929.1397 C 566.29429 927.4128599999999 563.7562200000001 926 563.56583 926 C 563.37544 926 556.98274 922.39099 549.35984 917.97998 C 541.73693 913.56897 534.375 909.32236 533 908.54308 L 530.5 907.12621 L 530.24349 834.6382 L 529.9869799999999 762.1502 L 537.24349 757.7068300000001 C 541.23457 755.2629700000001 553.5 747.9652300000001 564.5 741.4896100000001 C 575.5 735.01399 591.16367 725.7297100000001 599.30814 720.8578800000001 C 607.45262 715.9860500000001 614.61358 712.2659100000002 615.05814 712.0000000000001 C 615.5575 711.7013100000001 615.71581 711.4624200000001 616.16801 711.1493400000002 C 616.74671 710.7486900000001 617.00445 710.5600400000002 617.4542799999999 710.2986900000002 C 617.92392 710.0258200000002 624.16824 706.2433300000002 631.73758 701.6518400000002 C 639.30691 697.0603500000002 648.20548 691.8165800000003 651.51217 689.9990200000002 L 657.5243399999999 686.6943700000002 L 678.51217 698.9927400000001 C 690.05548 705.7568400000001 708.5 716.6753800000001 719.5 723.2561600000001 C 730.5 729.8369400000001 746.7 739.4918300000002 755.5 744.7114600000001 C 782.39733 760.6653400000001 783.47642 761.3307300000001 784.23849 762.4324100000001 C 784.64465 763.0195800000001 784.86965 795.6641900000001 784.73849 834.9759800000002 L 784.5 906.4519500000001 L 778.20929 910.2556100000002 C 774.7493900000001 912.3476100000001 754.94939 923.8066700000002 734.20929 935.7201800000001 C 713.46918 947.6336900000001 691.16963 960.4453600000002 684.65472 964.1905500000001 C 678.13982 967.9357500000001 672.67332 971.0000000000001 672.50693 971.0000000000001 C 672.34054 971.0000000000001 669.34592 972.7214100000001 665.8522 974.8253500000001 C 662.3584900000001 976.9293000000001 658.825 978.8711800000001 658 979.14065 C 657.175 979.41012 651.87915 976.9012200000001 646.23145 973.5653000000001 z M 651 900.04411 L 651 839.0882200000001 L 643.75 834.9103500000001 C 639.7625 832.6125200000001 631.325 827.7079900000001 625 824.0114000000001 C 618.675 820.3148100000001 611.475 816.1605200000001 609 814.7796500000001 C 606.525 813.39877 597.525 808.23841 589 803.31217 C 580.475 798.38593 572.825 794.04655 572 793.66909 C 571.175 793.2916299999999 569.15 792.15629 567.5 791.14611 C 558.71572 785.76808 544.80403 778 543.95693 778 C 543.3349900000001 778 543.07748 800.0037 543.2423100000001 839.06226 L 543.5000000000001 900.1245200000001 L 550.0000000000001 903.63381 C 553.5750000000002 905.56392 557.4680300000001 907.76714 558.6511800000001 908.52985 C 560.8937000000001 909.97549 582.4659800000001 922.41122 592.0000000000001 927.75438 C 595.0250000000001 929.4496899999999 609.2000000000002 937.5967999999999 623.5000000000001 945.85908 C 637.8000000000001 954.12136 649.8375000000001 960.9080899999999 650.2500000000001 960.94071 C 650.6625000000001 960.97331 651.0000000000001 933.56985 651.0000000000001 900.0441099999999 z M 674.75868 955.3932400000001 C 680.11641 952.3095300000001 684.95 949.4493300000001 685.5 949.0372500000001 C 686.05 948.6251700000001 688.975 946.9340500000001 692 945.27921 C 697.27857 942.39153 719.71765 929.53799 727 925.23053 C 728.925 924.0919 732.8064 921.8867300000001 735.62532 920.33015 C 738.44425 918.77357 747.76979 913.45 756.34875 908.5 L 771.94684 899.5 L 771.97344 838.28222 C 771.99874 780.02705 771.91404 777.09918 770.22383 777.78222 C 769.24692 778.177 764.18442 781.0310800000001 758.97383 784.12462 C 753.76323 787.21816 741.6250200000001 794.24063 732.0000200000001 799.7301100000001 C 722.3750200000001 805.21959 709.77502 812.4332600000001 704.0000200000001 815.7604900000001 C 698.2250200000001 819.0877100000001 691.2133200000001 823.0902400000001 688.4184600000001 824.6549900000001 C 685.6236100000001 826.2197500000001 678.9955800000001 829.9750000000001 673.68951 833.0000000000001 L 664.0421200000001 838.5000000000001 L 664.02102 899.7500000000001 C 664.00942 933.4375000000001 664.22888 961.0000000000001 664.50865 961.0000000000001 C 664.78843 961.0000000000001 669.40093 958.4769600000001 674.75865 955.3932400000001 z M 670.3312900000001 820.3437800000002 C 677.5740800000001 816.1328500000002 684.8500000000001 811.9260400000002 686.5000000000001 810.9953000000002 C 688.1500000000001 810.0645600000001 694.2250000000001 806.6017500000002 700.0000000000001 803.3001800000002 C 705.7750000000001 799.9986000000002 722.2000000000002 790.6396300000001 736.5000000000001 782.5024700000001 C 750.8000000000001 774.3653000000002 763.8393600000002 766.7347800000001 764.5728700000001 766.0620300000002 C 765.6511800000001 765.0730400000002 762.4229100000001 763.6429500000002 750.8336600000001 756.8091100000001 C 742.9501500000001 752.1604300000001 735.0420100000001 747.4891500000001 733.2600200000002 746.4284800000001 C 731.4780400000002 745.3678200000002 724.7280400000002 741.3862600000001 718.2600200000002 737.5805800000002 C 711.79201 733.7749 699.975 726.73214 692 721.93 C 671.35774 709.50029 658.18133 702 656.98724 702 C 656.4206700000001 702 654.27927 703.07437 652.22856 704.3875 C 650.17785 705.7006200000001 640.625 711.38922 631 717.0288300000001 C 621.375 722.6684500000001 609.225 729.8483600000001 604 732.9842000000001 C 598.775 736.1200400000001 585.5 743.9985900000001 574.5 750.4920900000001 C 563.5 756.9855900000001 553.28299 763.0289 551.79553 763.9216600000001 L 549.09106 765.54488 L 565.29553 774.90637 C 589.4659399999999 788.8698800000001 601.04359 795.5213600000001 605.5 798.00428 C 607.7 799.23002 612.65 802.10443 616.5 804.39185 C 620.35 806.67928 624.625 809.12832 626 809.83417 C 627.375 810.5400099999999 634.8 814.86961 642.5 819.4555 C 650.2 824.04139 656.64908 827.8399400000001 656.83129 827.89674 C 657.0135 827.95354 663.0885 824.5547 670.33129 820.34378 z" stroke-linecap="round" />
</g>
</g>
</g>
</svg>