<?xml version="1.0" encoding="UTF-8" standalone="no" ?>
<!DOCTYPE svg PUBLIC "-//W3C//DTD SVG 1.1//EN" "http://www.w3.org/Graphics/SVG/1.1/DTD/svg11.dtd">
<svg xmlns="http://www.w3.org/2000/svg" xmlns:xlink="http://www.w3.org/1999/xlink" version="1.1" width="1080" height="1080" viewBox="0 0 1080 1080" xml:space="preserve">
<desc>Created with Fabric.js 5.2.4</desc>
<defs>
</defs>
<rect x="0" y="0" width="100%" height="100%" fill="transparent"></rect>
<g transform="matrix(1 0 0 1 540 540)" id="a6f246a6-7351-4bd5-a60a-e50eb6094cc9"  >
<rect style="stroke: none; stroke-width: 1; stroke-dasharray: none; stroke-linecap: butt; stroke-dashoffset: 0; stroke-linejoin: miter; stroke-miterlimit: 4; fill: rgb(255,255,255); fill-rule: nonzero; opacity: 1; visibility: hidden;" vector-effect="non-scaling-stroke"  x="-540" y="-540" rx="0" ry="0" width="1080" height="1080" />
</g>
<g transform="matrix(1 0 0 1 540 540)" id="11cd9d27-036e-42a5-8e17-0133f4e1cb60"  >
</g>
<g transform="matrix(3.88 0 0 3.63 536.54 542.43)" id="41f06e10-729d-4a6b-b44e-b3cebdde00a0"  >
<path style="stroke: rgb(0,0,0); stroke-width: 0; stroke-dasharray: none; stroke-linecap: butt; stroke-dashoffset: 0; stroke-linejoin: miter; stroke-miterlimit: 4; fill: rgb(255,255,255); fill-rule: nonzero; opacity: 1;" vector-effect="non-scaling-stroke"  transform=" translate(-334.34, -499.48)" d="M 326.93145 637.68443 C 323.31874 634.83299 314.99374 628.33217 308.43145 623.23815 C 301.86915 618.14413 294.25 612.22586 291.5 610.08644 C 282.45827 603.05222 267.64757 591.57142 259 584.89344 C 254.325 581.28323 243.975 573.2514000000001 236 567.04493 C 228.025 560.83847 220.22363 554.8018500000001 218.66363 553.63023 C 217.10363 552.4585999999999 215.30363 551.03752 214.66363 550.47227 C 214.02363000000003 549.90701 209.79385000000002 546.5932 205.26412000000002 543.10824 C 200.01825000000002 539.07232 197.29540000000003 536.34383 197.76412000000002 535.59271 C 198.4822 534.4419800000001 203.966 527.19266 239.06111 481 C 248.46308000000002 468.625 265.3496 446.35 276.58672 431.5 C 287.82384 416.65 303.3693 396.175 311.13219000000004 386 C 318.89509000000004 375.825 327.10357000000005 364.92447 329.37327000000005 361.7766 C 331.64297000000005 358.62872999999996 333.80173 356.04123 334.17051000000004 356.0266 C 334.53929000000005 356.012 338.67502 361.0625 343.36103 367.25 C 348.04704000000004 373.4375 353.61517000000003 380.75 355.73465000000004 383.5 C 357.85414000000003 386.25 365.1782400000001 395.925 372.01043000000004 405 C 378.84263000000004 414.075 384.68095000000005 421.725 384.98448 422 C 385.28802 422.275 388.89500000000004 427 393 432.5 C 397.105 438 400.69904 442.725 400.98676 443 C 401.27447 443.275 404.80779 447.92631 408.83857 453.33624 C 412.86935 458.74618 416.77252 463.92118 417.51228000000003 464.83624 C 418.25204 465.75131 422.56008 471.45 427.08570000000003 477.5 C 431.61132000000003 483.55 436.37521000000004 489.85 437.67212 491.5 C 438.96904 493.15 440.3788 494.95 440.80493 495.5 C 442.20390000000003 497.30564 459.45476 520.18351 461.44479 522.87232 C 462.51443 524.3175399999999 465.10193000000004 527.58745 467.19479 530.13878 C 469.28766 532.69011 470.98354 535.39011 470.96341 536.13878 C 470.94331 536.88745 467.96904 539.75 464.35396000000003 542.5 C 460.73888000000005 545.25 451.41785000000004 552.46624 443.64055 558.53608 C 421.39116 575.90076 392.60501 598.25846 388.96708 601 C 387.14251 602.375 379.99099 607.90958 373.07484 613.29906 C 366.15868 618.6885500000001 359.15 624.14822 357.5 625.4316600000001 C 355.85 626.7151000000001 350.09856 631.19302 344.71903 635.38259 C 339.33948999999996 639.57217 334.61449 642.97049 334.21903 642.93443 C 333.82356 642.89833 330.54415 640.5358600000001 326.93145 637.68443 z M 327.7579 444.4 L 327.5 384.64544 L 324.72083 388.84535 C 323.19228999999996 391.1553 321.30456 393.82258 320.52588 394.77263 C 318.53801 397.19799 309.65878 408.80436 295.48843999999997 427.5 C 288.81849 436.3 279.76732 448.225 275.37472999999994 454 C 270.98213999999996 459.775 261.08734999999996 472.825 253.38629999999995 483 C 245.68525999999994 493.175 234.07720999999995 508.44478 227.59064999999995 516.93285 C 221.10407999999995 525.42092 215.59672999999995 532.88734 215.35207999999994 533.52489 C 215.10741999999993 534.1624400000001 219.24982999999995 538.01765 224.55741999999995 542.09204 C 229.86500999999996 546.16642 236.29837999999995 551.15782 238.85378999999995 553.18404 C 241.40920999999994 555.21026 262.3999999999999 571.52938 285.49999999999994 589.44876 L 327.49999999999994 622.02944 L 327.75789999999995 563.09199 C 327.89973999999995 530.6764000000001 327.89973999999995 477.265 327.75789999999995 444.4 z M 357.5 609.46962 C 366.3 602.60223 380.88688 591.2496699999999 389.91529 584.24172 C 406.41626 571.4335 439.19202 545.92522 442.01306 543.69576 C 442.84524 543.0380899999999 445.88274 540.72003 448.76306 538.54451 C 451.64338 536.369 454 534.46004 454 534.30239 C 454 534.14474 449.81235 528.4997099999999 444.6941 521.75788 C 439.57586 515.01604 429.11508 501.175 421.44794 491 C 413.78079 480.825 406.9641 471.825 406.29973 471 C 404.28645 468.49993 359.35149 409.30893 350.12248 397 L 341.5 385.5 L 341.25102 428 C 340.65795 529.23355 340.53791 621.99854 341 621.97801 C 341.275 621.96581 348.7 616.33702 357.5 609.4696200000001 z" stroke-linecap="round" />
</g>
</svg>