<?xml version="1.0" encoding="UTF-8" standalone="no" ?>
<!DOCTYPE svg PUBLIC "-//W3C//DTD SVG 1.1//EN" "http://www.w3.org/Graphics/SVG/1.1/DTD/svg11.dtd">
<svg xmlns="http://www.w3.org/2000/svg" xmlns:xlink="http://www.w3.org/1999/xlink" version="1.1" width="1080" height="1080" viewBox="0 0 1080 1080" xml:space="preserve">
<desc>Created with Fabric.js 5.2.4</desc>
<defs>
</defs>
<g transform="matrix(1 0 0 1 540 540)" id="97a0771c-9414-47b9-9b33-c9d0d015ff86"  >
</g>
<g transform="matrix(1 0 0 1 540 540)" id="33e1551a-0d84-4098-ba9b-e3ee8ccc1a48"  >
<rect style="stroke: none; stroke-width: 1; stroke-dasharray: none; stroke-linecap: butt; stroke-dashoffset: 0; stroke-linejoin: miter; stroke-miterlimit: 4; fill: rgb(255,255,255); fill-rule: nonzero; opacity: 1; visibility: hidden;" vector-effect="non-scaling-stroke"  x="-540" y="-540" rx="0" ry="0" width="1080" height="1080" />
</g>
<g transform="matrix(0.5 0 0 0.5 540 540)"  >
<g style="" vector-effect="non-scaling-stroke"   >
		<g transform="matrix(1 0 0 1 8.19 -4.36)"  >
<rect style="stroke: none; stroke-width: 1; stroke-dasharray: none; stroke-linecap: butt; stroke-dashoffset: 0; stroke-linejoin: miter; stroke-miterlimit: 4; fill: rgb(255,255,255); fill-rule: nonzero; opacity: 1; visibility: hidden;" vector-effect="non-scaling-stroke"  x="-540" y="-540" rx="0" ry="0" width="1080" height="1080" />
</g>
		<g transform="matrix(-1.31 0 0 -1.31 251.38 280.56)"  >
<rect style="stroke: none; stroke-width: 1; stroke-dasharray: none; stroke-linecap: butt; stroke-dashoffset: 0; stroke-linejoin: miter; stroke-miterlimit: 4; fill: rgb(255,255,255); fill-opacity: 0; fill-rule: nonzero; opacity: 1;" vector-effect="non-scaling-stroke"  x="-50" y="-50" rx="0" ry="0" width="100" height="100" />
</g>
		<g transform="matrix(-1.31 0 0 -1.31 -390.52 -361.34)"  >
<rect style="stroke: none; stroke-width: 1; stroke-dasharray: none; stroke-linecap: butt; stroke-dashoffset: 0; stroke-linejoin: miter; stroke-miterlimit: 4; fill: rgb(255,255,255); fill-rule: nonzero; opacity: 1; visibility: hidden;" vector-effect="non-scaling-stroke"  x="-540" y="-540" rx="0" ry="0" width="1080" height="1080" />
</g>
		<g transform="matrix(-4.83 0 0 -4.79 -386.59 -362.74)"  >
<path style="stroke: rgb(0,0,0); stroke-width: 0; stroke-dasharray: none; stroke-linecap: butt; stroke-dashoffset: 0; stroke-linejoin: miter; stroke-miterlimit: 4; fill: rgb(255,255,255); fill-rule: nonzero; opacity: 1;" vector-effect="non-scaling-stroke"  transform=" translate(-657.53, -499.62)" d="M 648.33753 634.83587 C 643.52366 630.25114 635.07456 622.225 629.56176 617 C 616.06173 604.20476 600.9815500000001 589.87986 586.4000100000001 576 C 579.75525 569.675 566.9417300000001 557.525 557.92551 549 C 548.90929 540.475 537.25009 529.37098 532.01619 524.32441 C 526.78228 519.27783 521.4875000000001 514.27505 520.25 513.20711 C 519.0125 512.1391799999999 518 510.90640999999994 518 510.46763999999996 C 518 510.02885999999995 520.5875 506.92744999999996 523.75 503.57561999999996 C 526.9125 500.22378999999995 533.1 493.47167999999994 537.5 488.57093 C 541.9 483.67017999999996 545.95 479.16591999999997 546.5 478.56147 C 547.05 477.95700999999997 549.48465 475.2209 551.91033 472.48123 C 554.33601 469.74154999999996 558.8422700000001 464.79999999999995 561.9242300000001 461.5 C 565.0062 458.2 569.0508300000001 453.7 570.91231 451.5 C 572.7737800000001 449.3 576.59252 444.98659 579.3984 441.91465 C 584.70475 436.10515 585.72299 434.97179 600.4349000000001 418.5 C 605.3472700000001 413 609.6292800000001 408.275 609.9504800000001 408 C 610.2716800000001 407.725 616.81897 400.525 624.5000000000001 392 C 632.1810300000001 383.475 638.6982700000001 376.275 638.9827600000001 376 C 639.2672400000001 375.725 642.8750000000001 371.67724 647.0000000000001 367.00498 C 651.1250000000001 362.33272999999997 655.0303600000001 357.94523 655.6785700000001 357.25498 C 656.9750700000002 355.87442999999996 657.5762500000002 355.60546 658.7473200000002 356.93667999999997 C 659.2376800000002 357.49852 660.6763000000002 359.29999999999995 662.7039000000002 361.49999999999994 C 668.2912400000002 367.56238999999994 675.1500200000002 375.17062999999996 678.5129100000001 379.0364799999999 C 680.1700200000001 380.94141999999994 687.8200200000001 389.4436799999999 695.5129100000001 397.93040999999994 C 703.2058100000002 406.41712999999993 711.5047500000002 415.64212999999995 713.9549900000002 418.43040999999994 C 716.4052400000002 421.21867999999995 720.6802400000001 425.9819099999999 723.4549900000002 429.01535999999993 C 730.8499500000001 437.0997699999999 745.8927300000001 453.76392999999996 750.5000000000002 458.97541999999993 C 752.7000000000003 461.4639399999999 754.7359600000002 463.7249999999999 755.0243500000003 463.99999999999994 C 755.3127400000003 464.2749999999999 763.8477800000003 473.72499999999997 773.9911000000003 484.99999999999994 C 784.1344200000003 496.2749999999999 793.4758300000003 506.62499999999994 794.7497900000003 507.99999999999994 L 797.0660800000003 510.49999999999994 L 786.7830400000003 520.34872 C 781.1273700000003 525.7655199999999 769.0750000000003 537.2109899999999 760.0000000000002 545.7830899999999 C 750.9250000000002 554.3551999999999 738.3106600000002 566.34827 731.9681400000002 572.43437 C 725.6256200000001 578.5204699999999 713.4988300000002 590.025 705.0197100000001 598 C 696.5406000000002 605.975 684.4049400000001 617.48375 678.0515700000002 623.575 C 671.6982100000002 629.66624 664.3827600000002 636.56739 661.7950100000002 638.9108600000001 L 657.0900300000002 643.1717400000001 z M 651 571.44468 L 651 522.8893499999999 L 645.75 520.58809 C 640.25376 518.1788899999999 636.24671 516.51589 608.65111 505.19136 C 591.82443 498.28612 591.79609 498.27871999999996 587.15111 499.57446 C 569.45464 504.51102 539.5166 513.15007 539.2776200000001 513.38904 C 539.1186200000001 513.54805 542.70361 517.19613 547.24426 521.49589 C 551.78492 525.79565 559.325 532.96937 564 537.4375 C 575.44209 548.37326 589.89231 562.08623 611.48521 582.5 C 621.3752800000001 591.85 634.19955 604.10373 639.9835800000001 609.73051 C 645.7676100000001 615.35728 650.6125000000001 619.96978 650.7500000000001 619.98051 C 650.8875000000002 619.99121 651.0000000000001 598.1501 651.0000000000001 571.44468 z M 668.3788 615.33323 C 670.64546 613.3164999999999 680.10791 604.429 689.4064699999999 595.58323 C 709.0559499999999 576.89055 712.0296899999998 574.0685699999999 722.6244099999999 564.0604999999999 C 726.9559899999999 559.96877 738.3749999999999 549.1491699999999 747.9999999999999 540.01694 C 757.6249999999999 530.8847099999999 767.9113399999999 521.15896 770.8585299999999 518.4041599999999 L 776.2170699999998 513.3954399999999 L 766.8585299999999 510.7034599999999 C 761.7113399999998 509.2228699999999 749.8759699999998 505.7979199999999 740.5577099999998 503.0924599999999 L 723.6154199999999 498.1734499999999 L 716.0577099999998 501.1168899999999 C 711.9009699999998 502.7357699999999 707.5999999999998 504.4838499999999 706.4999999999998 505.0015099999999 C 704.8382699999997 505.78350999999986 676.1961199999997 517.4235099999999 666.7686199999998 521.1481099999999 L 664.0372499999999 522.2272099999999 L 663.7686199999998 570.6138599999999 C 663.6208799999998 597.22651 663.6704199999998 619.0003899999999 663.8787999999998 619.0002499999999 C 664.0871399999999 619.00011 666.1121399999998 617.3499499999999 668.3787999999998 615.33323 z M 670.5677999999999 506.1320099999999 C 700.6954999999999 493.8407899999999 710.6256199999999 489.7268499999999 712.2349899999999 488.8697199999999 C 713.7867799999999 488.0432699999999 713.24403 486.5494799999999 707.0948799999999 474.72284999999994 C 695.1916099999999 451.8293499999999 688.0984099999998 438.11387999999994 677.5010699999999 417.49999999999994 C 660.6869199999999 384.79320999999993 657.59953 378.99622999999997 657.03618 379.07447999999994 C 656.74128 379.11547999999993 654.2598399999999 383.72794999999996 651.5218699999999 389.32447999999994 C 648.7838999999999 394.92101999999994 642.44724 407.37499999999994 637.4404099999999 416.99999999999994 C 632.4335699999999 426.62499999999994 623.4730999999999 443.94999999999993 617.52824 455.49999999999994 C 611.58338 467.04999999999995 605.43254 478.83817999999997 603.8597 481.6959499999999 C 602.28687 484.55371999999994 601 487.31134999999995 601 487.8240199999999 C 601 488.3366899999999 603.8125 489.7720299999999 607.25 491.0136499999999 C 610.6875 492.2552799999999 615.75 494.2824299999999 618.5 495.5184299999999 C 623.43196 497.7351099999999 630.34185 500.6277699999999 647 507.4492499999999 C 651.675 509.3636499999999 656.20551 510.9457399999999 657.0678 510.9649899999999 C 657.9300900000001 510.9842899999999 664.00509 508.8094099999999 670.5678 506.13200999999987 z M 565.67467 492.50432 C 574.9286 489.96538 583.625 487.45464 585 486.92489 C 587.63475 485.90981 587.88687 485.46754 607.18919 448 C 612.7144300000001 437.275 619.6993200000001 423.85463 622.7111600000001 418.17695 C 625.7230000000001 412.49926999999997 628.0326000000001 407.71304999999995 627.84361 407.54089999999997 C 627.65463 407.36875 619.85 415.73684 610.5 426.13665 C 601.15 436.53646 591.99118 446.72267999999997 590.14706 448.7727 C 588.30295 450.82271 579.31015 460.825 570.1630700000001 471 C 561.0159900000001 481.175 553.2998200000001 489.73435 553.01601 490.02076999999997 C 548.86485 494.21025 545.8519500000001 498.17656 547.1746700000001 497.71056999999996 C 548.0957400000001 497.38606999999996 556.4207400000001 495.04326 565.6746700000001 492.50431999999995 z M 767.97038 497.25 C 767.94348 496.56876 765.92928 494.30589 752.616 480 C 750.31273 477.525 742.40256 468.75 735.03786 460.5 C 727.6731500000001 452.25 717.73598 441.225 712.9552600000001 436 C 708.1745400000001 430.775 700.5340500000001 422.225 695.9764 417 C 691.41874 411.775 687.2543900000001 407.33161 686.72228 407.1258 C 686.19017 406.91999000000004 687.3199599999999 409.61999000000003 689.23293 413.1258 C 691.1459 416.63161 698.014 429.85 704.49536 442.5 C 721.23372 475.16908 726.07499 484.35963 727.14629 485.5 C 727.6629800000001 486.05 736.72894 489.03225 747.29286 492.12722 C 769.1101100000001 498.51913 768.00973 498.24652000000003 767.97038 497.25 z" stroke-linecap="round" />
</g>
		<g transform="matrix(1.36 0 0 1.36 -302.89 -332.06)"  >
<rect style="stroke: none; stroke-width: 1; stroke-dasharray: none; stroke-linecap: butt; stroke-dashoffset: 0; stroke-linejoin: miter; stroke-miterlimit: 4; fill: rgb(255,255,255); fill-opacity: 0; fill-rule: nonzero; opacity: 1;" vector-effect="non-scaling-stroke"  x="-50" y="-50" rx="0" ry="0" width="100" height="100" />
</g>
		<g transform="matrix(1.36 0 0 1.36 363.51 334.34)"  >
<rect style="stroke: none; stroke-width: 1; stroke-dasharray: none; stroke-linecap: butt; stroke-dashoffset: 0; stroke-linejoin: miter; stroke-miterlimit: 4; fill: rgb(255,255,255); fill-rule: nonzero; opacity: 1; visibility: hidden;" vector-effect="non-scaling-stroke"  x="-540" y="-540" rx="0" ry="0" width="1080" height="1080" />
</g>
		<g transform="matrix(5.02 0 0 4.98 360.24 336.82)"  >
<path style="stroke: rgb(0,0,0); stroke-width: 0; stroke-dasharray: none; stroke-linecap: butt; stroke-dashoffset: 0; stroke-linejoin: miter; stroke-miterlimit: 4; fill: rgb(255,255,255); fill-rule: nonzero; opacity: 1;" vector-effect="non-scaling-stroke"  transform=" translate(-657.53, -499.62)" d="M 648.33753 634.83587 C 643.52366 630.25114 635.07456 622.225 629.56176 617 C 616.06173 604.20476 600.9815500000001 589.87986 586.4000100000001 576 C 579.75525 569.675 566.9417300000001 557.525 557.92551 549 C 548.90929 540.475 537.25009 529.37098 532.01619 524.32441 C 526.78228 519.27783 521.4875000000001 514.27505 520.25 513.20711 C 519.0125 512.1391799999999 518 510.90640999999994 518 510.46763999999996 C 518 510.02885999999995 520.5875 506.92744999999996 523.75 503.57561999999996 C 526.9125 500.22378999999995 533.1 493.47167999999994 537.5 488.57093 C 541.9 483.67017999999996 545.95 479.16591999999997 546.5 478.56147 C 547.05 477.95700999999997 549.48465 475.2209 551.91033 472.48123 C 554.33601 469.74154999999996 558.8422700000001 464.79999999999995 561.9242300000001 461.5 C 565.0062 458.2 569.0508300000001 453.7 570.91231 451.5 C 572.7737800000001 449.3 576.59252 444.98659 579.3984 441.91465 C 584.70475 436.10515 585.72299 434.97179 600.4349000000001 418.5 C 605.3472700000001 413 609.6292800000001 408.275 609.9504800000001 408 C 610.2716800000001 407.725 616.81897 400.525 624.5000000000001 392 C 632.1810300000001 383.475 638.6982700000001 376.275 638.9827600000001 376 C 639.2672400000001 375.725 642.8750000000001 371.67724 647.0000000000001 367.00498 C 651.1250000000001 362.33272999999997 655.0303600000001 357.94523 655.6785700000001 357.25498 C 656.9750700000002 355.87442999999996 657.5762500000002 355.60546 658.7473200000002 356.93667999999997 C 659.2376800000002 357.49852 660.6763000000002 359.29999999999995 662.7039000000002 361.49999999999994 C 668.2912400000002 367.56238999999994 675.1500200000002 375.17062999999996 678.5129100000001 379.0364799999999 C 680.1700200000001 380.94141999999994 687.8200200000001 389.4436799999999 695.5129100000001 397.93040999999994 C 703.2058100000002 406.41712999999993 711.5047500000002 415.64212999999995 713.9549900000002 418.43040999999994 C 716.4052400000002 421.21867999999995 720.6802400000001 425.9819099999999 723.4549900000002 429.01535999999993 C 730.8499500000001 437.0997699999999 745.8927300000001 453.76392999999996 750.5000000000002 458.97541999999993 C 752.7000000000003 461.4639399999999 754.7359600000002 463.7249999999999 755.0243500000003 463.99999999999994 C 755.3127400000003 464.2749999999999 763.8477800000003 473.72499999999997 773.9911000000003 484.99999999999994 C 784.1344200000003 496.2749999999999 793.4758300000003 506.62499999999994 794.7497900000003 507.99999999999994 L 797.0660800000003 510.49999999999994 L 786.7830400000003 520.34872 C 781.1273700000003 525.7655199999999 769.0750000000003 537.2109899999999 760.0000000000002 545.7830899999999 C 750.9250000000002 554.3551999999999 738.3106600000002 566.34827 731.9681400000002 572.43437 C 725.6256200000001 578.5204699999999 713.4988300000002 590.025 705.0197100000001 598 C 696.5406000000002 605.975 684.4049400000001 617.48375 678.0515700000002 623.575 C 671.6982100000002 629.66624 664.3827600000002 636.56739 661.7950100000002 638.9108600000001 L 657.0900300000002 643.1717400000001 z M 651 571.44468 L 651 522.8893499999999 L 645.75 520.58809 C 640.25376 518.1788899999999 636.24671 516.51589 608.65111 505.19136 C 591.82443 498.28612 591.79609 498.27871999999996 587.15111 499.57446 C 569.45464 504.51102 539.5166 513.15007 539.2776200000001 513.38904 C 539.1186200000001 513.54805 542.70361 517.19613 547.24426 521.49589 C 551.78492 525.79565 559.325 532.96937 564 537.4375 C 575.44209 548.37326 589.89231 562.08623 611.48521 582.5 C 621.3752800000001 591.85 634.19955 604.10373 639.9835800000001 609.73051 C 645.7676100000001 615.35728 650.6125000000001 619.96978 650.7500000000001 619.98051 C 650.8875000000002 619.99121 651.0000000000001 598.1501 651.0000000000001 571.44468 z M 668.3788 615.33323 C 670.64546 613.3164999999999 680.10791 604.429 689.4064699999999 595.58323 C 709.0559499999999 576.89055 712.0296899999998 574.0685699999999 722.6244099999999 564.0604999999999 C 726.9559899999999 559.96877 738.3749999999999 549.1491699999999 747.9999999999999 540.01694 C 757.6249999999999 530.8847099999999 767.9113399999999 521.15896 770.8585299999999 518.4041599999999 L 776.2170699999998 513.3954399999999 L 766.8585299999999 510.7034599999999 C 761.7113399999998 509.2228699999999 749.8759699999998 505.7979199999999 740.5577099999998 503.0924599999999 L 723.6154199999999 498.1734499999999 L 716.0577099999998 501.1168899999999 C 711.9009699999998 502.7357699999999 707.5999999999998 504.4838499999999 706.4999999999998 505.0015099999999 C 704.8382699999997 505.78350999999986 676.1961199999997 517.4235099999999 666.7686199999998 521.1481099999999 L 664.0372499999999 522.2272099999999 L 663.7686199999998 570.6138599999999 C 663.6208799999998 597.22651 663.6704199999998 619.0003899999999 663.8787999999998 619.0002499999999 C 664.0871399999999 619.00011 666.1121399999998 617.3499499999999 668.3787999999998 615.33323 z M 670.5677999999999 506.1320099999999 C 700.6954999999999 493.8407899999999 710.6256199999999 489.7268499999999 712.2349899999999 488.8697199999999 C 713.7867799999999 488.0432699999999 713.24403 486.5494799999999 707.0948799999999 474.72284999999994 C 695.1916099999999 451.8293499999999 688.0984099999998 438.11387999999994 677.5010699999999 417.49999999999994 C 660.6869199999999 384.79320999999993 657.59953 378.99622999999997 657.03618 379.07447999999994 C 656.74128 379.11547999999993 654.2598399999999 383.72794999999996 651.5218699999999 389.32447999999994 C 648.7838999999999 394.92101999999994 642.44724 407.37499999999994 637.4404099999999 416.99999999999994 C 632.4335699999999 426.62499999999994 623.4730999999999 443.94999999999993 617.52824 455.49999999999994 C 611.58338 467.04999999999995 605.43254 478.83817999999997 603.8597 481.6959499999999 C 602.28687 484.55371999999994 601 487.31134999999995 601 487.8240199999999 C 601 488.3366899999999 603.8125 489.7720299999999 607.25 491.0136499999999 C 610.6875 492.2552799999999 615.75 494.2824299999999 618.5 495.5184299999999 C 623.43196 497.7351099999999 630.34185 500.6277699999999 647 507.4492499999999 C 651.675 509.3636499999999 656.20551 510.9457399999999 657.0678 510.9649899999999 C 657.9300900000001 510.9842899999999 664.00509 508.8094099999999 670.5678 506.13200999999987 z M 565.67467 492.50432 C 574.9286 489.96538 583.625 487.45464 585 486.92489 C 587.63475 485.90981 587.88687 485.46754 607.18919 448 C 612.7144300000001 437.275 619.6993200000001 423.85463 622.7111600000001 418.17695 C 625.7230000000001 412.49926999999997 628.0326000000001 407.71304999999995 627.84361 407.54089999999997 C 627.65463 407.36875 619.85 415.73684 610.5 426.13665 C 601.15 436.53646 591.99118 446.72267999999997 590.14706 448.7727 C 588.30295 450.82271 579.31015 460.825 570.1630700000001 471 C 561.0159900000001 481.175 553.2998200000001 489.73435 553.01601 490.02076999999997 C 548.86485 494.21025 545.8519500000001 498.17656 547.1746700000001 497.71056999999996 C 548.0957400000001 497.38606999999996 556.4207400000001 495.04326 565.6746700000001 492.50431999999995 z M 767.97038 497.25 C 767.94348 496.56876 765.92928 494.30589 752.616 480 C 750.31273 477.525 742.40256 468.75 735.03786 460.5 C 727.6731500000001 452.25 717.73598 441.225 712.9552600000001 436 C 708.1745400000001 430.775 700.5340500000001 422.225 695.9764 417 C 691.41874 411.775 687.2543900000001 407.33161 686.72228 407.1258 C 686.19017 406.91999000000004 687.3199599999999 409.61999000000003 689.23293 413.1258 C 691.1459 416.63161 698.014 429.85 704.49536 442.5 C 721.23372 475.16908 726.07499 484.35963 727.14629 485.5 C 727.6629800000001 486.05 736.72894 489.03225 747.29286 492.12722 C 769.1101100000001 498.51913 768.00973 498.24652000000003 767.97038 497.25 z" stroke-linecap="round" />
</g>
</g>
</g>
</svg>