<?xml version="1.0" encoding="UTF-8" standalone="no" ?>
<!DOCTYPE svg PUBLIC "-//W3C//DTD SVG 1.1//EN" "http://www.w3.org/Graphics/SVG/1.1/DTD/svg11.dtd">
<svg xmlns="http://www.w3.org/2000/svg" xmlns:xlink="http://www.w3.org/1999/xlink" version="1.1" width="1080" height="1080" viewBox="0 0 1080 1080" xml:space="preserve">
<desc>Created with Fabric.js 5.2.4</desc>
<defs>
</defs>
<rect x="0" y="0" width="100%" height="100%" fill="transparent"></rect>
<g transform="matrix(1 0 0 1 540 540)" id="a6f246a6-7351-4bd5-a60a-e50eb6094cc9"  >
<rect style="stroke: none; stroke-width: 1; stroke-dasharray: none; stroke-linecap: butt; stroke-dashoffset: 0; stroke-linejoin: miter; stroke-miterlimit: 4; fill: rgb(255,255,255); fill-rule: nonzero; opacity: 1; visibility: hidden;" vector-effect="non-scaling-stroke"  x="-540" y="-540" rx="0" ry="0" width="1080" height="1080" />
</g>
<g transform="matrix(1 0 0 1 540 540)" id="11cd9d27-036e-42a5-8e17-0133f4e1cb60"  >
</g>
<g transform="matrix(4.36 0 0 3.84 541.73 542.7)" id="cf73b7d5-c6da-45c5-b829-fd4bbbec3934"  >
<path style="stroke: rgb(0,0,0); stroke-width: 0; stroke-dasharray: none; stroke-linecap: butt; stroke-dashoffset: 0; stroke-linejoin: miter; stroke-miterlimit: 4; fill: rgb(255,255,255); fill-rule: nonzero; opacity: 1;" vector-effect="non-scaling-stroke"  transform=" translate(-334.5, -163.99)" d="M 330.5 297.11182 C 328.85 296.09186 310.175 285.23744000000005 289 272.99091000000004 C 267.825 260.74437000000006 248.025 249.27472000000003 245 247.50280000000004 C 241.975 245.73088000000004 234.20941 241.18957000000003 227.74313 237.41101000000003 L 215.98626 230.5409 L 216.24313 162.58255 L 216.5 94.624197 L 228 88.244073 C 234.325 84.735006 243.325 79.684639 248 77.021036 C 252.675 74.357434 259.2 70.70392799999999 262.5 68.90213399999999 C 265.8 67.10033999999999 283.08922 57.38526299999999 300.92049 47.31307299999999 C 318.75177 37.240883 333.74005 29 334.22778 29 C 334.71551999999997 29 345.3263 34.707174 357.80728999999997 41.682608 C 370.28828 48.658043 387.92499999999995 58.506377 396.99999999999994 63.567796 C 406.07499999999993 68.629215 422.2749999999999 77.742686 432.99999999999994 83.819954 L 452.49999999999994 94.86953199999999 L 452.75686999999994 162.72053 L 453.01374999999996 230.57153 L 444.25686999999994 235.61223999999999 C 439.44058999999993 238.38461999999998 426.94999999999993 245.62677 416.49999999999994 251.70588999999998 C 394.06303999999994 264.75825 357.30026999999995 286.10396 344.2586799999999 293.65166999999997 C 339.1759599999999 296.59324999999995 334.6759599999999 298.99242 334.2586799999999 298.98314999999997 C 333.84140999999994 298.97414999999995 332.1499999999999 298.13178999999997 330.4999999999999 297.11181999999997 z M 328 266.46862000000004 C 328 255.70569000000003 328.45988 251.84216000000004 327.53405 251.57064000000005 C 326.84655 251.36901000000006 321.22499999999997 250.46635000000006 316 249.56472000000005 C 310.775 248.66309000000004 295.25 245.96563000000006 281.5 243.57036000000005 C 267.75 241.17509000000004 256.42075 239.28362000000004 256.3239 239.36710000000005 C 256.227 239.45060000000004 260.95203999999995 242.28103000000004 266.8239 245.65700000000004 C 272.69575 249.03298000000004 283.125 255.06947000000005 290 259.07143 C 315.55516 273.94718 327.50689 280.86875000000003 327.75 280.93346 C 327.8875 280.97006000000005 328 274.46088000000003 328 266.46862000000004 z M 347 277.47931000000005 C 348.925 276.29049000000003 352.525 274.17559000000006 355 272.7795300000001 C 357.475 271.38346000000007 367.825 265.38731000000007 378 259.4547500000001 C 388.175 253.5221800000001 400.19413 246.6245300000001 404.70918 244.1266400000001 C 409.22422 241.62875000000008 412.79052 239.45719000000008 412.63428 239.30095000000009 C 412.47805 239.1447100000001 406.53391999999997 240.09912000000008 399.42511 241.4218600000001 C 375.83607 245.8110800000001 344.34798 251.2240100000001 342.15443000000005 251.2240100000001 C 340.03351000000004 251.2240100000001 341.00000000000006 251.2895100000001 341.00000000000006 266.0590200000001 C 341.00000000000006 277.8334900000001 341.2726400000001 280.9569300000001 342.25000000000006 280.37941000000006 C 342.93750000000006 279.97317000000004 345.07500000000005 278.6681300000001 347.00000000000006 277.47931000000005 z M 322 237.53042000000005 C 322 237.27215000000004 321.14683 235.58465000000004 320.10406 233.78042000000005 C 302.46318 203.25763 297 193.70089 297 193.36447 C 297 193.14215000000002 295.95067 191.2817 294.66815 189.23013 C 293.38564 187.17856 290.96292000000005 183.025 289.28433 180 C 287.60573 176.975 284.44413000000003 171.35 282.25853 167.5 C 280.07294 163.65 276.25039 156.9 273.76399000000004 152.5 C 266.30060000000003 139.29258 265.52295000000004 138.01291 264.95616 138.00632 C 264.65705 138.00332 260.44125 148.0125 255.58772000000002 160.25 C 250.73419 172.4875 243.21642000000003 191.42923 238.88156 202.34274 C 234.54670000000002 213.25624 231 222.36874 231 222.59274 C 231 222.81672999999998 232.2713 223 233.82511 223 C 235.37892 223 241.56642 223.88412 247.57511 224.9647 C 253.5838 226.04529 270.425 228.9639 285 231.45050999999998 C 299.575 233.93712999999997 313.525 236.37870999999998 316 236.87624999999997 C 321.92799 238.06792999999996 322 238.07577999999998 322 237.53041999999996 z M 377.5 232.47078000000005 C 392.35 229.92707000000004 411.925 226.60406000000006 421 225.08632000000006 C 430.075 223.56858000000005 437.38985 221.91576000000006 437.25522 221.41339000000005 C 436.86338 219.95124 418.00433 172.1488 414.99897 165 C 413.49602999999996 161.425 410.51893 153.89312999999999 408.38318 148.26252 C 406.24743 142.6319 404.25678 138.0194 403.95950999999997 138.01252 C 403.45829 138.00092 347.94948 234.85503 347.13168999999994 237.16812 C 346.9204899999999 237.76549 347.5603499999999 237.97224 348.63168999999994 237.65279999999998 C 349.65925999999996 237.3464 362.6499999999999 235.01449 377.49999999999994 232.47078 z M 337.80939 227.75 C 339.43529 224.8625 352.74331 201.5008 367.38278 175.83511 C 382.02225 150.16942 394 129.01942 394 128.83511 C 394 128.6508 367.225 128.5 334.5 128.5 C 301.775 128.5 275 128.80083 275 129.16852 C 275 129.5362 277.7 134.41037 281 140 C 284.3 145.58963 287 150.36024 287 150.60135 C 287 150.84247 288.04933 152.7183 289.33185 154.76987 C 290.61436 156.82144 293.02472 160.975 294.6882 164 C 297.65472 169.39456 306.58687 185.13367 313.98365 198 C 316.03889000000004 201.575 319.88093000000003 208.325 322.52152 213 C 329.35047000000003 225.09027 334.08741000000003 233 334.49901 233 C 334.69383 233 336.1835 230.6375 337.80939 227.75 z M 238.27844 170 C 253.18431999999999 132.41795 255.48235 126.51617999999999 255.49128 125.79422 C 255.49928 125.1456 233.09694 111.35817 230.27637 110.27580999999999 C 229.31402999999997 109.90652999999999 228.98385 118.92026999999999 228.77174 151.35201 C 228.62228 174.20412000000002 228.78173999999999 192.58601000000002 229.12553 192.20065 C 229.46957 191.81529 233.58838 181.825 238.27844 170 z M 439.5649 110.23157 C 438.70484000000005 109.37150000000001 412.89895 125.29454000000001 413.36344 126.39868000000001 C 414.56839 129.26295000000002 433.52616 177.47631 436.32638000000003 184.79798 L 439.50000000000006 193.09596 L 439.76122000000004 151.89254 C 439.90489 129.23065 439.81652 110.48321 439.5649 110.23157 z M 390.70584 114.85413 C 390.04263 113.9489 384.57394 107.1989 378.55321 99.854129 C 372.53247 92.509358 364.00629 82 359.60613 76.5 C 355.20598 71 351.34541 66.275 351.02709 66 C 350.70876999999996 65.725 348.88723 63.475 346.97923 61 C 345.07122999999996 58.525 342.31127 55.15 340.84598 53.5 C 339.38069 51.85 337.27965 49.375 336.17699 48 C 335.07433 46.625 334.00347999999997 45.725 333.79732 46 C 331.84189000000003 48.608321000000004 321.21261000000004 61.803611000000004 320.23487 62.836559 C 319.53905 63.571667 317.74161 65.821667 316.24056 67.836559 C 314.73951 69.851452 313.25843000000003 71.725 312.94927 72 C 312.15717 72.704576 277.00002 116.00632 276.99991 116.27748 C 276.99986 116.39986999999999 302.85499 116.5 334.45575 116.5 C 387.61265000000003 116.5 391.82145 116.37685 390.70584 114.85413 z M 275.79391 97.75 C 283.01322999999996 88.8125 293.23787999999996 76.2125 298.51536 69.75 C 303.79285 63.2875 307.90711 58 307.65817 58 C 307.40923 58 298.7218 62.773682 288.35276999999996 68.608182 C 277.98375 74.442682 261.73985 83.520031 252.25521999999995 88.780067 C 242.77058999999994 94.040104 235.22107999999994 98.55441 235.47852999999995 98.811859 C 236.24372999999994 99.577066 261.44854999999995 113.93713 262.0839399999999 113.96988999999999 C 262.40509999999995 113.98648999999999 268.57458999999994 106.68749999999999 275.7939099999999 97.75 z M 417.86234 107.84013 C 423.71305 104.4522 429.77593 101.02507 431.33539 100.22429 L 434.17078000000004 98.768318 L 429.33539 96.066699 C 411.58863 86.151267 369.10006 62.18913 363 58.655749 C 359.64855 56.714463 359.56763 56.710578 361.09339 58.564209 C 361.96975 59.628893 365.78696 64.32499899999999 369.57608 68.999999 C 373.36519 73.674999 376.7098 77.724999 377.00853 77.999999 C 377.30726 78.27499900000001 379.10342 80.52499900000001 381 82.999999 C 382.89658 85.474999 384.72384 87.724999 385.06059 87.999999 C 385.39734 88.27499900000001 389.45175 93.224999 394.07038 98.999999 C 403.85306 111.23197 406.20077 114 406.79268 114 C 407.03028 114 412.01163 111.22806 417.86234 107.84013 z" stroke-linecap="round" />
</g>
</svg>