<?xml version="1.0" encoding="UTF-8" standalone="no" ?>
<!DOCTYPE svg PUBLIC "-//W3C//DTD SVG 1.1//EN" "http://www.w3.org/Graphics/SVG/1.1/DTD/svg11.dtd">
<svg xmlns="http://www.w3.org/2000/svg" xmlns:xlink="http://www.w3.org/1999/xlink" version="1.1" width="1080" height="1080" viewBox="0 0 1080 1080" xml:space="preserve">
<desc>Created with Fabric.js 5.2.4</desc>
<defs>
</defs>
<rect x="0" y="0" width="100%" height="100%" fill="transparent"></rect>
<g transform="matrix(1 0 0 1 540 540)" id="b7288389-a352-40a1-b72b-b058c8230a25"  >
<rect style="stroke: none; stroke-width: 1; stroke-dasharray: none; stroke-linecap: butt; stroke-dashoffset: 0; stroke-linejoin: miter; stroke-miterlimit: 4; fill: rgb(255,255,255); fill-rule: nonzero; opacity: 1; visibility: hidden;" vector-effect="non-scaling-stroke"  x="-540" y="-540" rx="0" ry="0" width="1080" height="1080" />
</g>
<g transform="matrix(1 0 0 1 540 540)" id="5f6fd61a-200f-4f04-9c87-dbdbbd175a83"  >
</g>
<g transform="matrix(0 0 0 0 0 0)"  >
<g style=""   >
</g>
</g>
<g transform="matrix(14.14 0 0 14.17 541.65 548.94)" id="6c10513e-e5b2-4df7-bdea-7c8d6773fbee"  >
<circle style="stroke: rgb(0,0,0); stroke-width: 0; stroke-dasharray: none; stroke-linecap: butt; stroke-dashoffset: 0; stroke-linejoin: miter; stroke-miterlimit: 4; fill: rgb(162,21,22); fill-rule: nonzero; opacity: 1;" vector-effect="non-scaling-stroke"  cx="0" cy="0" r="35" />
</g>
<g transform="matrix(1 0 0 1 540 540)"  >
<g style="" vector-effect="non-scaling-stroke"   >
		<g transform="matrix(1 0 0 1 -490 -490)"  >
<rect style="stroke: none; stroke-width: 1; stroke-dasharray: none; stroke-linecap: butt; stroke-dashoffset: 0; stroke-linejoin: miter; stroke-miterlimit: 4; fill: rgb(255,255,255); fill-opacity: 0; fill-rule: nonzero; opacity: 1;" vector-effect="non-scaling-stroke"  x="-50" y="-50" rx="0" ry="0" width="100" height="100" />
</g>
		<g transform="matrix(1 0 0 1 0 0)"  >
<rect style="stroke: none; stroke-width: 1; stroke-dasharray: none; stroke-linecap: butt; stroke-dashoffset: 0; stroke-linejoin: miter; stroke-miterlimit: 4; fill: rgb(255,255,255); fill-rule: nonzero; opacity: 1; visibility: hidden;" vector-effect="non-scaling-stroke"  x="-540" y="-540" rx="0" ry="0" width="1080" height="1080" />
</g>
		<g transform="matrix(3.86 0 0 3.95 1.37 2.69)"  >
<path style="stroke: rgb(0,0,0); stroke-width: 0; stroke-dasharray: none; stroke-linecap: butt; stroke-dashoffset: 0; stroke-linejoin: miter; stroke-miterlimit: 4; fill: rgb(255,255,255); fill-rule: nonzero; opacity: 1;" vector-effect="non-scaling-stroke"  transform=" translate(-334.5, -833.16)" d="M 287.5 961.90428 C 280.46063 958.15998 246.37541 937.74473 244.83341000000001 936.34924 C 243.90528 935.50929 240.79345 930.6995900000001 237.91824000000003 925.66103 C 235.04303 920.62246 229.6754 911.325 225.99016 905 C 222.30493 898.675 214.94955 885.99693 209.64487 876.8265 L 200 860.153 L 200 834.5394 L 200 808.9258 L 211.65318 789.2129 C 224.32258 767.78091 236.73692 746.81141 243.74822 735 L 248.20026000000001 727.5 L 271.59578 715.25 L 294.99131 703 L 334.12968 703 L 373.26806 703 L 381.38403 707.12781 C 404.84384 719.0595599999999 418.6755 726.39641 420.16293 727.69763 C 421.07755000000003 728.49775 424.49684 733.7306 427.76135 739.32619 C 431.02587 744.92179 438.77979999999997 758.05 444.9923 768.5 C 451.2048 778.95 457.07772 788.89554 458.04323 790.60121 C 459.00873 792.30687 461.86899 797.11289 464.39934999999997 801.28124 L 469 808.86006 L 469 834.2683099999999 L 469 859.6765599999999 L 450.34736 892.0882799999999 C 440.08840999999995 909.91473 430.07590999999996 927.1812699999999 428.09736 930.45837 C 424.57049 936.29999 424.06273999999996 936.6765999999999 402.18496999999996 949.6785699999999 L 379.86994 962.94039 L 335.18496999999996 963.2202 C 295.83856 963.4665699999999 290.14158999999995 963.3094 287.49999999999994 961.90428 z M 375.28755 941 C 376.85446 935.775 379.19566000000003 927.9 380.49021 923.5 C 381.78476 919.1 385.35405 907.13526 388.42197 896.91168 C 391.48989 886.6881 394 878.07251 394 877.76592 C 394 877.45934 391.6375 875.7415900000001 388.75 873.94871 C 385.8625 872.15583 380.8 869.01431 377.5 866.96756 C 374.2 864.9208100000001 363.18207 858.18059 353.01571 851.9892900000001 C 335.1907 841.1338800000001 334.4417 840.7850400000001 332.01571 842.2088400000001 C 322.7771 847.6309600000001 281.81206000000003 872.6329300000001 278.75 874.7182200000001 C 276.6875 876.1228000000001 275 877.7353300000001 275 878.30163 C 275 878.86792 279.82348 895.46198 285.71885 915.1773000000001 L 296.43769999999995 951.02335 L 334.4381599999999 950.7616700000001 L 372.4386099999999 950.5000000000001 z M 280.04464 940.61741 C 279.09261000000004 938.11338 275.26404 925.29292 265.63425 892.36227 C 262.06798 880.16683 260.95047 877.60557 257.5 873.71911 C 253.85988 869.61903 240.70004 855.611 220.65562 834.5 L 213.05981 826.5 L 213.02991 842.02904 L 213.00001 857.55807 L 221.10289 871.52904 C 225.55947 879.21307 231.32735 889.1 233.92041 893.5 C 236.51347 897.9 238.93229 902.175 239.29558 903 C 239.65887 903.825 243.00871 909.66764 246.73966000000001 915.98363 L 253.52321 927.46727 L 265.91703 934.68905 C 272.73363 938.66103 278.77341 942.3734 279.33876000000004 942.9387499999999 C 280.89381000000003 944.4938 281.17139000000003 943.5809699999999 280.04465000000005 940.61741 z M 408.00926000000004 931.56165 C 415.68966000000006 926.82636 416.41716 925.8685399999999 428.23052000000007 904.93832 C 429.60830000000004 902.4972399999999 436.42007000000007 890.67264 443.36779000000007 878.66142 L 456 856.82283 L 455.9754 841.66142 L 455.9508 826.5 L 447.72539 835.01566 C 437.01225 846.10682 414.00251000000003 870.5789500000001 410.31223 874.80661 C 408.16789 877.26321 406.18222 882.2759599999999 402.58781 894.30661 C 391.1413 932.61865 388.82117 940.30241 388.24896 941.79354 C 387.60512 943.47136 394.39331 939.95643 408.00924000000003 931.56165 z M 278.21195 860.25 C 283.38798 857.0875 296.70776 848.88288 307.81146 842.01751 L 328 829.53501 L 328 793.4189700000001 L 328 757.3029300000001 L 319.75 755.16776 C 311.0853 752.9252600000001 281.0671 745.6648700000001 265.12818 741.95658 C 257.34130999999996 740.14491 255.60635 740.00649 254.86932 741.1380800000001 C 254.38144 741.88714 250.77659999999997 747.9000000000001 246.85855999999998 754.5000000000001 C 242.94051 761.1000000000001 234.16949999999997 775.8595600000001 227.36741999999998 787.2990300000001 C 220.56534 798.73849 215 808.65099 215 809.32679 C 215 810.0025899999999 215.7875 811.24505 216.75 812.08782 C 218.43954 813.56718 254.14001 851.56571 262.93896 861.25 C 265.31263 863.8625 267.60263000000003 866 268.02785 866 C 268.45307 866 273.03591 863.4125 278.21195 860.25 z M 419.03583000000003 846.9334 C 428.64112000000006 836.72176 440.47789000000006 824.02564 445.33975000000004 818.71978 L 454.17949000000004 809.07277 L 443.95965000000007 791.78639 C 438.3387400000001 782.27887 429.1858500000001 766.7422799999999 423.61991000000006 757.26063 L 413.5 740.02126 L 410 740.58716 C 408.075 740.89841 392.775 744.49189 376 748.57268 C 359.225 752.65348 344.4875 756.22761 343.25 756.5151999999999 L 341 757.0381 L 341 793.09048 C 341 831.5220099999999 340.7948 829.90014 346.03867 832.91518 C 349.39753 834.8464 395.00495 862.91156 397.5 864.5826199999999 C 398.6 865.3193399999999 399.96612 865.8271399999999 400.53583 865.7110599999999 C 401.10553 865.5949799999999 409.43053 857.1450299999999 419.03583 846.9333999999999 z M 365.30013 738.04728 C 381.1402 734.17128 394.7527 731 395.55013 731 C 398.88338000000005 731 396.29463000000004 729.13887 384.07473000000005 722.75 L 371.16411 716 L 334.53659 716 L 297.90908 716 L 284.36804 722.88752 C 276.92046 726.67566 271.20342 729.98915 271.6635 730.25083 C 272.12357 730.51252 279.7 732.41017 288.5 734.4678299999999 C 297.3 736.5255 311.25 739.89059 319.5 741.9458199999999 C 327.75 744.00105 334.95 745.5502899999999 335.5 745.3885799999999 C 336.05 745.22687 349.46006 741.92329 365.30013 738.0472799999999 z" stroke-linecap="round" />
</g>
</g>
</g>
</svg>