<svg width="1920.0000000000002" height="1920.0000000000002" xmlns="http://www.w3.org/2000/svg" fill="#8b0000">
 <g>
  <title>Layer 1</title>
  <path d="m254.56763,963.33332c0,-157.86851 52.82407,-303.46202 140.96481,-421.08331l984.43976,984.43976c-117.62128,88.14073 -263.2148,140.96481 -421.08331,140.96481c-388.28239,0 -704.32126,-316.03887 -704.32126,-704.32126m1408.64251,0c0,157.86851 -52.82407,303.46202 -140.96481,421.08331l-984.43976,-984.43976c117.62128,-88.14073 263.2148,-140.96481 421.08331,-140.96481c388.28239,0 704.32126,316.03887 704.32126,704.32126m-704.32126,-905.5555c-500.16849,0 -905.5555,405.38701 -905.5555,905.5555s405.38701,905.5555 905.5555,905.5555s905.5555,-405.38701 905.5555,-905.5555s-405.38701,-905.5555 -905.5555,-905.5555" fill-rule="evenodd" id="svg_1" stroke-width="50" stroke="#4c0000"/>
  <text stroke-width="0.5" x="222.20882" y="821.31509" id="svg_2" fill="#ffffff" font-size="24" font-family="'Inter'" text-anchor="start" xml:space="preserve" font-weight="bold" stroke="#ffffff" transform="matrix(24.0158 0 0 24.0158 -5325.01 -18536.8)">SCENE</text>
 </g>

</svg>